<svg width="520" height="112" viewBox="0 0 520 112" fill="none" xmlns="http://www.w3.org/2000/svg">
<path d="M163.683 63.0195C163.683 81.9781 149.311 94.6212 132.312 94.6212C115.312 94.6212 100.597 81.9821 100.597 63.0195C100.597 44.0569 114.973 31.54 132.312 31.54C149.65 31.54 163.683 44.1791 163.683 63.0195ZM146.116 63.0195C146.116 53.7176 139.385 47.5164 132.312 47.5164C125.238 47.5164 118.164 53.7176 118.164 63.0195C118.164 72.3213 124.895 78.5225 132.312 78.5225C139.728 78.5225 146.116 72.4396 146.116 63.0195Z" fill="black"/>
<path d="M318.218 63.0195C318.218 81.9781 303.846 94.6212 286.846 94.6212C269.847 94.6212 255.131 81.9821 255.131 63.0195C255.131 44.0569 269.507 31.5361 286.846 31.5361C304.185 31.5361 318.218 44.1752 318.218 63.0195ZM300.65 63.0195C300.65 53.7177 293.92 47.5165 286.846 47.5165C279.773 47.5165 272.699 53.7177 272.699 63.0195C272.699 72.3213 279.429 78.5225 286.846 78.5225C294.263 78.5225 300.65 72.4396 300.65 63.0195Z" fill="black"/>
<path d="M389.657 55.9341V94.6207H370.239V60.2063C370.239 52.7941 365.962 47.7724 359.737 47.7724C352.044 47.7724 347.037 53.1728 347.037 65.3582V94.6246H327.497V29.6895H347.037V37.6027C351.677 32.577 358.151 29.6895 365.844 29.6895C380.133 29.6895 389.657 40.1155 389.657 55.942V55.9341Z" fill="black"/>
<path d="M91.318 94.6215V20.4082H71.8448L45.661 57.9192L19.4732 20.4082H0V94.6215H20.2109V54.5898L39.8379 78.9331H51.48L71.111 54.7239V94.6215H91.318Z" fill="black"/>
<path d="M244.926 41.3076H226.372V94.6175H244.926V41.3076Z" fill="black"/>
<path d="M245.853 26.9015C245.853 32.5386 241.284 37.1066 235.646 37.1066C230.009 37.1066 225.44 32.5386 225.44 26.9015C225.44 21.2644 230.009 16.6963 235.646 16.6963C241.284 16.6963 245.853 21.2644 245.853 26.9015Z" fill="black"/>
<path d="M210.654 76.3769C205.297 76.3769 202.105 73.6984 202.105 67.0632V57.5168H216.162V41.3116H202.105V20.4082H182.967V41.2998H170.71V57.505H182.967V69.1066C182.967 85.9469 194.172 94.6255 207.21 94.6255C211.088 94.6255 213.471 94.1324 215.535 93.2251V75.7418C213.751 76.1402 211.976 76.3808 210.654 76.3808V76.3769Z" fill="black"/>
<path d="M520 0H408.668V111.322H520V0Z" fill="#D7000F"/>
<path d="M464.333 92.7689C484.804 92.7689 501.406 76.1929 501.441 55.7313V47.8654H469.178V63.6367H481.084C478.102 69.8931 471.722 74.2166 464.329 74.2166C454.08 74.2166 445.775 65.9089 445.775 55.6642C445.775 45.4196 454.084 37.1119 464.329 37.1119C466.392 37.1119 468.377 37.4551 470.231 38.0744L476.113 20.4688C472.409 19.2302 468.448 18.5596 464.329 18.5596C443.834 18.5596 427.217 35.1711 427.217 55.6642C427.217 76.1574 443.83 92.7729 464.329 92.7729L464.333 92.7689Z" fill="white"/>
</svg>
